<?xml version="1.0" encoding="UTF-8" standalone="no"?>
<svg
   xmlns:dc="http://purl.org/dc/elements/1.1/"
   xmlns:cc="http://creativecommons.org/ns#"
   xmlns:rdf="http://www.w3.org/1999/02/22-rdf-syntax-ns#"
   xmlns:svg="http://www.w3.org/2000/svg"
   xmlns="http://www.w3.org/2000/svg"
   width="210mm"
   height="297mm"
   viewBox="0 0 210 297"
   version="1.1"
   id="svg8">
  <defs
     id="defs2" />
  <metadata
     id="metadata5">
    <rdf:RDF>
      <cc:Work
         rdf:about="">
        <dc:format>image/svg+xml</dc:format>
        <dc:type
           rdf:resource="http://purl.org/dc/dcmitype/StillImage" />
        <dc:title></dc:title>
      </cc:Work>
    </rdf:RDF>
  </metadata>
  <g
     id="layer1">
    <path
       id="path837"
       style="fill:#b4a02c;fill-opacity:1;stroke-width:0.269082"
       d="M 43.302729,26.771997 C 37.456421,26.678989 -0.30260185,126.813 2.7016272,134.44295 c 1.4907564,3.78614 13.5846058,4.42027 25.3917868,4.09969 5.079642,32.22903 15.660534,78.24813 19.4,77.8906 C 53.313927,215.87675 79.725033,112.17035 75.892468,104.921 74.184807,101.69095 64.261541,101.93696 53.784379,103.19975 52.124402,70.818823 46.940088,26.82986 43.302729,26.771997 Z" />
    <path
       id="path844"
       style="fill:#b4a02c;fill-opacity:1;stroke-width:0.323947"
       d="m 298.55682,26.771933 c -3.61679,-9.185709 41.84134,-129.736933 48.87971,-129.624963 7.03838,0.11197 18.89523,136.878113 10.19633,132.592183 0,0 -55.45924,6.21851 -59.07604,-2.96722 z" />
    <path
       id="path846"
       style="fill:#b4a02c;fill-opacity:1;stroke-width:0.323947"
       d="m 386.67138,-8.7694164 c 4.61403,8.72749 -27.18231,133.5795264 -34.18963,134.2494964 -7.00732,0.66996 -33.97159,-133.9349864 -24.85071,-130.6410964 0,0 54.4263,-12.3359096 59.04034,-3.6084 z" />
    <path
       id="rect867"
       style="fill:#b4a02c;fill-opacity:1;stroke-width:0.365602"
       d="m 102.95646,62.743134 c -3.501434,0 -7.002893,1.341507 -9.685871,4.024485 l -3.40102,3.401022 47.576011,47.575789 c 5.36596,5.36595 5.36596,14.00579 0,19.37174 l -47.576011,47.57602 3.40102,3.40102 c 5.365956,5.36596 14.005791,5.36596 19.371741,0 l 50.97682,-50.97704 c 5.36595,-5.36595 5.36595,-14.00579 0,-19.37174 L 112.64233,66.767619 c -2.68298,-2.682978 -6.18443,-4.024485 -9.68587,-4.024485 z" />
    <path
       id="path872"
       style="fill:#b4a02c;fill-opacity:1;stroke-width:0.29966"
       d="m 85.866557,74.410369 c -2.869895,0 -5.739824,1.099549 -7.938883,3.298614 l -2.787605,2.787601 38.995031,38.994836 c 4.39812,4.39814 4.39812,11.47966 0,15.8778 l -38.995031,38.99503 2.787605,2.78759 c 4.398127,4.39814 11.47964,4.39814 15.877776,0 l 41.78245,-41.78262 c 4.39813,-4.39814 4.39813,-11.47966 0,-15.8778 L 93.80545,77.708983 c -2.199068,-2.199065 -5.068989,-3.298614 -7.938893,-3.298614 z" />
  </g>
</svg>
