<svg width="48.683mm" height="46.696mm" version="1.1" viewBox="0 0 48.683 46.696" xmlns="http://www.w3.org/2000/svg">
 <defs>
  <clipPath id="_clipPath_K0k5P6DnqbN8yjlW5GvJPbmbCQ9GCWAu">
   <rect x="1005.5" y="461" width="138" height="132.37"/>
  </clipPath>
 </defs>
 <g transform="translate(-60.325 -97.982)">
  <rect x="-129.3" y="83.648" width="119.02" height="80.327" opacity=".79" stroke-dashoffset="49.134" stroke-width=".4"/>
  <g transform="matrix(.35278 0 0 .35278 -294.39 -64.648)" clip-path="url(#_clipPath_K0k5P6DnqbN8yjlW5GvJPbmbCQ9GCWAu)" style="isolation:isolate">
   <path d="m1014.4 548.49h-8.864l13.587-21.3-12.293-19.32h8.734l6.146 10.26q0.518 0.84 1.23 2.13 0.711 1.29 1.423 2.67 0.712-1.38 1.456-2.64t1.261-2.1l6.211-10.32h8.67l-12.357 19.38 13.586 21.24h-8.799l-7.246-12q-0.518-0.84-1.294-2.19t-1.488-2.73l-2.717 4.92zm33.319 0v-40.62q0.453 0 2.07-0.03 1.618-0.03 3.623-0.03 2.006 0 4.012-0.03 2.005-0.03 3.299-0.03 7.893 0 11.646 3.27 3.752 3.27 3.752 8.97 0 2.76-1.035 5.07t-3.073 3.99-5.047 2.61q-3.008 0.93-7.019 0.93h-4.529v15.9zm7.699-35.58v14.34h4.982q4.076 0 5.822-1.98 1.747-1.98 1.747-5.04 0-1.38-0.388-2.7t-1.326-2.37-2.524-1.68q-1.585-0.63-3.978-0.63-1.424 0-2.491 0-1.068 0-1.844 0.06zm26.914 35.58v-40.62q0.453 0 2.07-0.03 1.618-0.03 3.623-0.03 2.006 0 4.012-0.03 2.005-0.03 3.299-0.03 8.023 0 11.711 2.91 3.687 2.91 3.687 8.19 0 3.48-1.876 6.18t-6.146 3.9q1.811 0.96 3.235 2.64 1.423 1.68 2.782 4.11 1.358 2.43 2.782 5.64 1.423 3.21 3.299 7.17h-8.346q-2.199-4.74-3.849-8.1t-3.203-5.46q-1.552-2.1-3.332-3.06-1.779-0.96-4.173-0.96h-1.876v17.58zm7.699-35.64v12.84h4.982q3.623 0 5.596-1.5t1.973-4.44q0-1.32-0.388-2.58t-1.326-2.22-2.523-1.53-3.979-0.57zm22.968-4.98h30.537l-0.97 5.4h-10.87v35.22h-7.634v-35.22h-11.063z"/>
   <g fill="#fff">
    <path d="m1047.7 548.49v-40.62q0.453 0 2.07-0.03 1.618-0.03 3.623-0.03 2.006 0 4.012-0.03 2.005-0.03 3.299-0.03 7.893 0 11.646 3.27 3.752 3.27 3.752 8.97 0 2.76-1.035 5.07t-3.073 3.99-5.047 2.61q-3.008 0.93-7.019 0.93h-4.529v15.9zm7.699-35.58v14.34h4.982q4.076 0 5.822-1.98 1.747-1.98 1.747-5.04 0-1.38-0.388-2.7t-1.326-2.37-2.524-1.68q-1.585-0.63-3.978-0.63-1.424 0-2.491 0-1.068 0-1.844 0.06z" fill-rule="evenodd"/>
    <path d="m1082.3 548.49v-40.62q0.453 0 2.07-0.03 1.618-0.03 3.623-0.03 2.006 0 4.012-0.03 2.005-0.03 3.299-0.03 8.023 0 11.711 2.91 3.687 2.91 3.687 8.19 0 3.48-1.876 6.18t-6.146 3.9q1.811 0.96 3.235 2.64 1.423 1.68 2.782 4.11 1.358 2.43 2.782 5.64 1.423 3.21 3.299 7.17h-8.346q-2.199-4.74-3.849-8.1t-3.203-5.46q-1.552-2.1-3.332-3.06-1.779-0.96-4.173-0.96h-1.876v17.58zm7.699-35.64v12.84h4.982q3.623 0 5.596-1.5t1.973-4.44q0-1.32-0.388-2.58t-1.326-2.22-2.523-1.53-3.979-0.57z" fill-rule="evenodd"/>
    <path transform="matrix(.75 0 0 .75 1005.5 461)" d="m1.7246 62.492 16.391 25.76-18.096 28.371h-0.019531v0.02929 49.619 9.334 0.86719h158.04v0.01757h10.178v-0.01757h0.02149v-10.201h-0.02149v-96.58h14.494l1.293-7.1992h-40.717v7.1992h14.752v96.58h-146.22v-49.619l9.6621-16 3.623-6.5605c0.63289 1.2267 1.2926 2.4406 1.9824 3.6406 0.68978 1.2 1.2661 2.1733 1.7266 2.9199l9.6602 16h11.732l-18.115-28.32 16.477-25.84h-11.561l-8.2812 13.76c-0.45956 0.74667-1.0184 1.6808-1.6797 2.8008s-1.3085 2.2929-1.9414 3.5195c-0.63289-1.2267-1.2664-2.4139-1.8984-3.5605-0.63289-1.1467-1.1802-2.0932-1.6406-2.8398l-8.1934-13.68h-11.646z" stroke-width="1.3333"/>
    <path d="m1013.6 501.75-6.509-3.705 65.085-37.044 65.085 37.044-6.508 3.705-58.577-33.34z" fill-rule="evenodd"/>
   </g>
   <path d="m1036.9 579.72v-9.856h-8.928v9.856h-3.808v-21.664h3.808v9.024h8.928v-9.024h3.808v21.664zm19.961-21.952q2.399 0 4.095 0.768 1.697 0.768 2.801 2.176t1.616 3.44q0.511 2.032 0.511 4.56 0 2.496-0.559 4.56-0.561 2.064-1.728 3.536-1.168 1.472-2.944 2.288t-4.208 0.816q-2.4 0-4.113-0.72-1.711-0.72-2.815-2.112t-1.617-3.376q-0.512-1.984-0.512-4.544 0-2.496 0.561-4.592 0.559-2.096 1.727-3.616 1.169-1.52 2.961-2.352t4.224-0.832zm-0.448 2.944q-1.409 0-2.337 0.624-0.927 0.624-1.504 1.712-0.575 1.088-0.815 2.56t-0.24 3.2q0 1.632 0.224 3.104t0.815 2.592q0.593 1.12 1.633 1.792 1.039 0.672 2.704 0.672 1.376 0 2.319-0.608 0.944-0.608 1.52-1.664 0.577-1.056 0.817-2.512t0.24-3.152q0-1.632-0.224-3.136t-0.817-2.656q-0.592-1.152-1.631-1.84-1.041-0.688-2.704-0.688zm31.896 10.688-3.584 8.32h-2.689l-3.616-8.224q-0.16-0.352-0.4-0.96t-0.527-1.344q-0.288-0.736-0.609-1.552-0.319-0.816-0.607-1.648 0 0.832-0.017 1.648-0.016 0.816-0.048 1.536t-0.048 1.28q-0.015 0.56-0.015 0.88l-0.321 8.384h-3.584l1.28-21.728h2.977l5.471 13.568q0.288 0.736 0.656 1.6 0.369 0.864 0.688 1.696 0.321-0.832 0.672-1.68 0.353-0.848 0.672-1.616l5.504-13.568h2.912l1.281 21.728h-3.552l-0.353-8.288q-0.032-0.8-0.079-2.288-0.048-1.488-0.08-3.024-0.289 0.8-0.592 1.6-0.304 0.8-0.561 1.504-0.256 0.704-0.48 1.28t-0.351 0.896zm13.208 8.32v-21.664h12.863v2.88h-9.055v6.048h7.455l-0.48 2.912h-6.975v6.944h9.536v2.88z" fill="#b4a02b"/>
   <text x="1027.6501" y="654.03345" font-family="'Noto Sans Armenian'" font-size="40px" stroke-width=".75" style="line-height:1.25" xml:space="preserve"><tspan x="1027.6501" y="654.03345" fill="#000000" font-family="'Arial Rounded MT Bold'" font-size="28px" stroke-width=".75">XPRT</tspan></text>
  </g>
  <g transform="matrix(.35278 0 0 .35278 -284.15 20.055)" clip-path="url(#_clipPath_K0k5P6DnqbN8yjlW5GvJPbmbCQ9GCWAu)" style="isolation:isolate">
   <g>
    <path d="m1014.4 548.49h-8.864l13.587-21.3-12.293-19.32h8.734l6.146 10.26q0.518 0.84 1.23 2.13 0.711 1.29 1.423 2.67 0.712-1.38 1.456-2.64t1.261-2.1l6.211-10.32h8.67l-12.357 19.38 13.586 21.24h-8.799l-7.246-12q-0.518-0.84-1.294-2.19t-1.488-2.73l-2.717 4.92zm33.319 0v-40.62q0.453 0 2.07-0.03 1.618-0.03 3.623-0.03 2.006 0 4.012-0.03 2.005-0.03 3.299-0.03 7.893 0 11.646 3.27 3.752 3.27 3.752 8.97 0 2.76-1.035 5.07t-3.073 3.99-5.047 2.61q-3.008 0.93-7.019 0.93h-4.529v15.9zm7.699-35.58v14.34h4.982q4.076 0 5.822-1.98 1.747-1.98 1.747-5.04 0-1.38-0.388-2.7t-1.326-2.37-2.524-1.68q-1.585-0.63-3.978-0.63-1.424 0-2.491 0-1.068 0-1.844 0.06zm26.914 35.58v-40.62q0.453 0 2.07-0.03 1.618-0.03 3.623-0.03 2.006 0 4.012-0.03 2.005-0.03 3.299-0.03 8.023 0 11.711 2.91 3.687 2.91 3.687 8.19 0 3.48-1.876 6.18t-6.146 3.9q1.811 0.96 3.235 2.64 1.423 1.68 2.782 4.11 1.358 2.43 2.782 5.64 1.423 3.21 3.299 7.17h-8.346q-2.199-4.74-3.849-8.1t-3.203-5.46q-1.552-2.1-3.332-3.06-1.779-0.96-4.173-0.96h-1.876v17.58zm7.699-35.64v12.84h4.982q3.623 0 5.596-1.5t1.973-4.44q0-1.32-0.388-2.58t-1.326-2.22-2.523-1.53-3.979-0.57zm22.968-4.98h30.537l-0.97 5.4h-10.87v35.22h-7.634v-35.22h-11.063z"/>
    <path d="m1047.7 548.49v-40.62q0.453 0 2.07-0.03 1.618-0.03 3.623-0.03 2.006 0 4.012-0.03 2.005-0.03 3.299-0.03 7.893 0 11.646 3.27 3.752 3.27 3.752 8.97 0 2.76-1.035 5.07t-3.073 3.99-5.047 2.61q-3.008 0.93-7.019 0.93h-4.529v15.9zm7.699-35.58v14.34h4.982q4.076 0 5.822-1.98 1.747-1.98 1.747-5.04 0-1.38-0.388-2.7t-1.326-2.37-2.524-1.68q-1.585-0.63-3.978-0.63-1.424 0-2.491 0-1.068 0-1.844 0.06z" fill-rule="evenodd"/>
    <path d="m1082.3 548.49v-40.62q0.453 0 2.07-0.03 1.618-0.03 3.623-0.03 2.006 0 4.012-0.03 2.005-0.03 3.299-0.03 8.023 0 11.711 2.91 3.687 2.91 3.687 8.19 0 3.48-1.876 6.18t-6.146 3.9q1.811 0.96 3.235 2.64 1.423 1.68 2.782 4.11 1.358 2.43 2.782 5.64 1.423 3.21 3.299 7.17h-8.346q-2.199-4.74-3.849-8.1t-3.203-5.46q-1.552-2.1-3.332-3.06-1.779-0.96-4.173-0.96h-1.876v17.58zm7.699-35.64v12.84h4.982q3.623 0 5.596-1.5t1.973-4.44q0-1.32-0.388-2.58t-1.326-2.22-2.523-1.53-3.979-0.57z" fill-rule="evenodd"/>
    <path d="m1113 507.87h30.537l-0.97 5.4h-10.87v80.098h-7.634v-80.098h-11.063z"/>
    <path d="m1013.6 501.75-6.509-3.705 65.085-37.044 65.085 37.044-6.508 3.705-58.577-33.34z" fill-rule="evenodd"/>
   </g>
   <path d="m1036.9 579.72v-9.856h-8.928v9.856h-3.808v-21.664h3.808v9.024h8.928v-9.024h3.808v21.664zm19.961-21.952q2.399 0 4.095 0.768 1.697 0.768 2.801 2.176t1.616 3.44q0.511 2.032 0.511 4.56 0 2.496-0.559 4.56-0.561 2.064-1.728 3.536-1.168 1.472-2.944 2.288t-4.208 0.816q-2.4 0-4.113-0.72-1.711-0.72-2.815-2.112t-1.617-3.376q-0.512-1.984-0.512-4.544 0-2.496 0.561-4.592 0.559-2.096 1.727-3.616 1.169-1.52 2.961-2.352t4.224-0.832zm-0.448 2.944q-1.409 0-2.337 0.624-0.927 0.624-1.504 1.712-0.575 1.088-0.815 2.56t-0.24 3.2q0 1.632 0.224 3.104t0.815 2.592q0.593 1.12 1.633 1.792 1.039 0.672 2.704 0.672 1.376 0 2.319-0.608 0.944-0.608 1.52-1.664 0.577-1.056 0.817-2.512t0.24-3.152q0-1.632-0.224-3.136t-0.817-2.656q-0.592-1.152-1.631-1.84-1.041-0.688-2.704-0.688zm31.896 10.688-3.584 8.32h-2.689l-3.616-8.224q-0.16-0.352-0.4-0.96t-0.527-1.344q-0.288-0.736-0.609-1.552-0.319-0.816-0.607-1.648 0 0.832-0.017 1.648-0.016 0.816-0.048 1.536t-0.048 1.28q-0.015 0.56-0.015 0.88l-0.321 8.384h-3.584l1.28-21.728h2.977l5.471 13.568q0.288 0.736 0.656 1.6 0.369 0.864 0.688 1.696 0.321-0.832 0.672-1.68 0.353-0.848 0.672-1.616l5.504-13.568h2.912l1.281 21.728h-3.552l-0.353-8.288q-0.032-0.8-0.079-2.288-0.048-1.488-0.08-3.024-0.289 0.8-0.592 1.6-0.304 0.8-0.561 1.504-0.256 0.704-0.48 1.28t-0.351 0.896zm13.208 8.32v-21.664h12.863v2.88h-9.055v6.048h7.455l-0.48 2.912h-6.975v6.944h9.536v2.88z" fill="#b4a02b"/>
   <g>
    <path d="m1005.5 593.35h126.18v-7.65h-126.18z"/>
    <path d="m1014.4 548.49h-8.864l13.587-21.3-12.293-19.32h8.734l6.146 10.26q0.518 0.84 1.23 2.13 0.711 1.29 1.423 2.67 0.712-1.38 1.456-2.64t1.261-2.1l6.211-10.32h8.67l-12.357 19.38 13.586 21.24h-8.799l-7.246-12q-0.518-0.84-1.294-2.19t-1.488-2.73l-2.717 4.92z"/>
    <path d="m1005.5 548.47h8.864v44.237h-8.864z"/>
   </g>
   <text x="1027.6501" y="654.03345" font-family="'Noto Sans Armenian'" font-size="40px" stroke-width=".75" style="line-height:1.25" xml:space="preserve"><tspan x="1027.6501" y="654.03345" fill="#000000" font-family="'Arial Rounded MT Bold'" font-size="28px" stroke-width=".75">XPRT</tspan></text>
  </g>
 </g>
</svg>
