<?xml version="1.0" encoding="UTF-8" standalone="no"?><!-- Generator: Gravit.io --><svg xmlns="http://www.w3.org/2000/svg" xmlns:xlink="http://www.w3.org/1999/xlink" style="isolation:isolate" viewBox="475.769 939.214 138 132.367" width="138pt" height="132.367pt"><defs><clipPath id="_clipPath_ynKhzpmMAYWTUsXHTm6lLZt6Ce50Xe6o"><rect x="475.769" y="939.214" width="138" height="132.367"/></clipPath></defs><g clip-path="url(#_clipPath_ynKhzpmMAYWTUsXHTm6lLZt6Ce50Xe6o)"><path d=" M 484.632 1026.703 L 475.769 1026.703 L 489.355 1005.403 L 477.063 986.083 L 485.797 986.083 L 491.943 996.343 L 491.943 996.343 Q 492.461 997.183 493.172 998.473 L 493.172 998.473 L 493.172 998.473 Q 493.884 999.763 494.596 1001.143 L 494.596 1001.143 L 494.596 1001.143 Q 495.307 999.763 496.052 998.503 L 496.052 998.503 L 496.052 998.503 Q 496.796 997.243 497.313 996.403 L 497.313 996.403 L 503.524 986.083 L 512.194 986.083 L 499.836 1005.463 L 513.423 1026.703 L 504.624 1026.703 L 497.378 1014.703 L 497.378 1014.703 Q 496.86 1013.863 496.084 1012.513 L 496.084 1012.513 L 496.084 1012.513 Q 495.307 1011.163 494.596 1009.783 L 494.596 1009.783 L 491.879 1014.703 L 484.632 1026.703 Z  M 517.952 1026.703 L 517.952 986.083 L 517.952 986.083 Q 518.405 986.083 520.022 986.053 L 520.022 986.053 L 520.022 986.053 Q 521.639 986.023 523.645 986.023 L 523.645 986.023 L 523.645 986.023 Q 525.651 986.023 527.656 985.993 L 527.656 985.993 L 527.656 985.993 Q 529.662 985.963 530.956 985.963 L 530.956 985.963 L 530.956 985.963 Q 538.849 985.963 542.601 989.233 L 542.601 989.233 L 542.601 989.233 Q 546.354 992.503 546.354 998.203 L 546.354 998.203 L 546.354 998.203 Q 546.354 1000.963 545.319 1003.273 L 545.319 1003.273 L 545.319 1003.273 Q 544.284 1005.583 542.246 1007.263 L 542.246 1007.263 L 542.246 1007.263 Q 540.208 1008.943 537.199 1009.873 L 537.199 1009.873 L 537.199 1009.873 Q 534.191 1010.803 530.18 1010.803 L 530.18 1010.803 L 525.651 1010.803 L 525.651 1026.703 L 517.952 1026.703 Z  M 525.651 991.123 L 525.651 1005.463 L 530.632 1005.463 L 530.632 1005.463 Q 534.708 1005.463 536.455 1003.483 L 536.455 1003.483 L 536.455 1003.483 Q 538.202 1001.503 538.202 998.443 L 538.202 998.443 L 538.202 998.443 Q 538.202 997.063 537.814 995.743 L 537.814 995.743 L 537.814 995.743 Q 537.426 994.423 536.488 993.373 L 536.488 993.373 L 536.488 993.373 Q 535.549 992.323 533.964 991.693 L 533.964 991.693 L 533.964 991.693 Q 532.379 991.063 529.985 991.063 L 529.985 991.063 L 529.985 991.063 Q 528.562 991.063 527.495 991.063 L 527.495 991.063 L 527.495 991.063 Q 526.427 991.063 525.651 991.123 L 525.651 991.123 Z  M 552.565 1026.703 L 552.565 986.083 L 552.565 986.083 Q 553.018 986.083 554.635 986.053 L 554.635 986.053 L 554.635 986.053 Q 556.253 986.023 558.258 986.023 L 558.258 986.023 L 558.258 986.023 Q 560.264 986.023 562.269 985.993 L 562.269 985.993 L 562.269 985.993 Q 564.275 985.963 565.569 985.963 L 565.569 985.963 L 565.569 985.963 Q 573.592 985.963 577.279 988.873 L 577.279 988.873 L 577.279 988.873 Q 580.967 991.783 580.967 997.063 L 580.967 997.063 L 580.967 997.063 Q 580.967 1000.543 579.091 1003.243 L 579.091 1003.243 L 579.091 1003.243 Q 577.215 1005.943 572.945 1007.143 L 572.945 1007.143 L 572.945 1007.143 Q 574.756 1008.103 576.18 1009.783 L 576.18 1009.783 L 576.18 1009.783 Q 577.603 1011.463 578.962 1013.893 L 578.962 1013.893 L 578.962 1013.893 Q 580.32 1016.323 581.744 1019.533 L 581.744 1019.533 L 581.744 1019.533 Q 583.167 1022.743 585.043 1026.703 L 585.043 1026.703 L 576.697 1026.703 L 576.697 1026.703 Q 574.497 1021.963 572.848 1018.603 L 572.848 1018.603 L 572.848 1018.603 Q 571.198 1015.243 569.645 1013.143 L 569.645 1013.143 L 569.645 1013.143 Q 568.092 1011.043 566.313 1010.083 L 566.313 1010.083 L 566.313 1010.083 Q 564.534 1009.123 562.14 1009.123 L 562.14 1009.123 L 560.264 1009.123 L 560.264 1026.703 L 552.565 1026.703 Z  M 560.264 991.063 L 560.264 1003.903 L 565.246 1003.903 L 565.246 1003.903 Q 568.869 1003.903 570.842 1002.403 L 570.842 1002.403 L 570.842 1002.403 Q 572.815 1000.903 572.815 997.963 L 572.815 997.963 L 572.815 997.963 Q 572.815 996.643 572.427 995.383 L 572.427 995.383 L 572.427 995.383 Q 572.039 994.123 571.101 993.163 L 571.101 993.163 L 571.101 993.163 Q 570.163 992.203 568.578 991.633 L 568.578 991.633 L 568.578 991.633 Q 566.992 991.063 564.599 991.063 L 564.599 991.063 L 560.264 991.063 Z  M 583.232 986.083 L 613.769 986.083 L 612.798 991.483 L 601.929 991.483 L 601.929 1026.703 L 594.295 1026.703 L 594.295 991.483 L 583.232 991.483 L 583.232 986.083 Z " fill="rgb(0,0,0)"/><path d=" M 517.952 1026.703 L 517.952 986.083 L 517.952 986.083 Q 518.405 986.083 520.022 986.053 L 520.022 986.053 L 520.022 986.053 Q 521.639 986.023 523.645 986.023 L 523.645 986.023 L 523.645 986.023 Q 525.651 986.023 527.656 985.993 L 527.656 985.993 L 527.656 985.993 Q 529.662 985.963 530.956 985.963 L 530.956 985.963 L 530.956 985.963 Q 538.849 985.963 542.601 989.233 L 542.601 989.233 L 542.601 989.233 Q 546.354 992.503 546.354 998.203 L 546.354 998.203 L 546.354 998.203 Q 546.354 1000.963 545.319 1003.273 L 545.319 1003.273 L 545.319 1003.273 Q 544.284 1005.583 542.246 1007.263 L 542.246 1007.263 L 542.246 1007.263 Q 540.208 1008.943 537.199 1009.873 L 537.199 1009.873 L 537.199 1009.873 Q 534.191 1010.803 530.18 1010.803 L 530.18 1010.803 L 525.651 1010.803 L 525.651 1026.703 L 517.952 1026.703 Z  M 525.651 991.123 L 525.651 1005.463 L 530.632 1005.463 L 530.632 1005.463 Q 534.708 1005.463 536.455 1003.483 L 536.455 1003.483 L 536.455 1003.483 Q 538.202 1001.503 538.202 998.443 L 538.202 998.443 L 538.202 998.443 Q 538.202 997.063 537.814 995.743 L 537.814 995.743 L 537.814 995.743 Q 537.426 994.423 536.488 993.373 L 536.488 993.373 L 536.488 993.373 Q 535.549 992.323 533.964 991.693 L 533.964 991.693 L 533.964 991.693 Q 532.379 991.063 529.985 991.063 L 529.985 991.063 L 529.985 991.063 Q 528.562 991.063 527.495 991.063 L 527.495 991.063 L 527.495 991.063 Q 526.427 991.063 525.651 991.123 L 525.651 991.123 Z " fill-rule="evenodd" fill="rgb(255,255,255)"/><path d=" M 552.565 1026.703 L 552.565 986.083 L 552.565 986.083 Q 553.018 986.083 554.635 986.053 L 554.635 986.053 L 554.635 986.053 Q 556.253 986.023 558.258 986.023 L 558.258 986.023 L 558.258 986.023 Q 560.264 986.023 562.269 985.993 L 562.269 985.993 L 562.269 985.993 Q 564.275 985.963 565.569 985.963 L 565.569 985.963 L 565.569 985.963 Q 573.592 985.963 577.279 988.873 L 577.279 988.873 L 577.279 988.873 Q 580.967 991.783 580.967 997.063 L 580.967 997.063 L 580.967 997.063 Q 580.967 1000.543 579.091 1003.243 L 579.091 1003.243 L 579.091 1003.243 Q 577.215 1005.943 572.945 1007.143 L 572.945 1007.143 L 572.945 1007.143 Q 574.756 1008.103 576.18 1009.783 L 576.18 1009.783 L 576.18 1009.783 Q 577.603 1011.463 578.962 1013.893 L 578.962 1013.893 L 578.962 1013.893 Q 580.32 1016.323 581.744 1019.533 L 581.744 1019.533 L 581.744 1019.533 Q 583.167 1022.743 585.043 1026.703 L 585.043 1026.703 L 576.697 1026.703 L 576.697 1026.703 Q 574.497 1021.963 572.848 1018.603 L 572.848 1018.603 L 572.848 1018.603 Q 571.198 1015.243 569.645 1013.143 L 569.645 1013.143 L 569.645 1013.143 Q 568.092 1011.043 566.313 1010.083 L 566.313 1010.083 L 566.313 1010.083 Q 564.534 1009.123 562.14 1009.123 L 562.14 1009.123 L 560.264 1009.123 L 560.264 1026.703 L 552.565 1026.703 Z  M 560.264 991.063 L 560.264 1003.903 L 565.246 1003.903 L 565.246 1003.903 Q 568.869 1003.903 570.842 1002.403 L 570.842 1002.403 L 570.842 1002.403 Q 572.815 1000.903 572.815 997.963 L 572.815 997.963 L 572.815 997.963 Q 572.815 996.643 572.427 995.383 L 572.427 995.383 L 572.427 995.383 Q 572.039 994.123 571.101 993.163 L 571.101 993.163 L 571.101 993.163 Q 570.163 992.203 568.578 991.633 L 568.578 991.633 L 568.578 991.633 Q 566.992 991.063 564.599 991.063 L 564.599 991.063 L 560.264 991.063 Z " fill-rule="evenodd" fill="rgb(255,255,255)"/><path d=" M 583.232 986.083 L 613.769 986.083 L 612.798 991.483 L 601.929 991.483 L 601.929 1071.582 L 594.295 1071.582 L 594.295 991.483 L 583.232 991.483 L 583.232 986.083 Z " fill="rgb(255,255,255)"/><path d=" M 483.862 979.963 L 477.354 976.259 L 542.439 939.214 L 607.524 976.259 L 601.016 979.963 L 542.439 946.623 L 483.862 979.963 Z " fill-rule="evenodd" fill="rgb(255,255,255)"/><path d=" M 507.12 1057.935 L 507.12 1048.079 L 498.192 1048.079 L 498.192 1057.935 L 494.384 1057.935 L 494.384 1036.271 L 498.192 1036.271 L 498.192 1045.295 L 507.12 1045.295 L 507.12 1036.271 L 510.928 1036.271 L 510.928 1057.935 L 507.12 1057.935 Z  M 527.08 1035.983 L 527.08 1035.983 Q 529.48 1035.983 531.176 1036.751 L 531.176 1036.751 L 531.176 1036.751 Q 532.872 1037.519 533.976 1038.927 L 533.976 1038.927 L 533.976 1038.927 Q 535.08 1040.335 535.592 1042.367 L 535.592 1042.367 L 535.592 1042.367 Q 536.104 1044.399 536.104 1046.927 L 536.104 1046.927 L 536.104 1046.927 Q 536.104 1049.423 535.544 1051.487 L 535.544 1051.487 L 535.544 1051.487 Q 534.984 1053.551 533.816 1055.023 L 533.816 1055.023 L 533.816 1055.023 Q 532.648 1056.495 530.872 1057.311 L 530.872 1057.311 L 530.872 1057.311 Q 529.096 1058.127 526.664 1058.127 L 526.664 1058.127 L 526.664 1058.127 Q 524.264 1058.127 522.552 1057.407 L 522.552 1057.407 L 522.552 1057.407 Q 520.84 1056.687 519.736 1055.295 L 519.736 1055.295 L 519.736 1055.295 Q 518.632 1053.903 518.12 1051.919 L 518.12 1051.919 L 518.12 1051.919 Q 517.608 1049.935 517.608 1047.375 L 517.608 1047.375 L 517.608 1047.375 Q 517.608 1044.879 518.168 1042.783 L 518.168 1042.783 L 518.168 1042.783 Q 518.728 1040.687 519.896 1039.167 L 519.896 1039.167 L 519.896 1039.167 Q 521.064 1037.647 522.856 1036.815 L 522.856 1036.815 L 522.856 1036.815 Q 524.648 1035.983 527.08 1035.983 L 527.08 1035.983 Z  M 526.632 1038.927 L 526.632 1038.927 Q 525.224 1038.927 524.296 1039.551 L 524.296 1039.551 L 524.296 1039.551 Q 523.368 1040.175 522.792 1041.263 L 522.792 1041.263 L 522.792 1041.263 Q 522.216 1042.351 521.976 1043.823 L 521.976 1043.823 L 521.976 1043.823 Q 521.736 1045.295 521.736 1047.023 L 521.736 1047.023 L 521.736 1047.023 Q 521.736 1048.655 521.96 1050.127 L 521.96 1050.127 L 521.96 1050.127 Q 522.184 1051.599 522.776 1052.719 L 522.776 1052.719 L 522.776 1052.719 Q 523.368 1053.839 524.408 1054.511 L 524.408 1054.511 L 524.408 1054.511 Q 525.448 1055.183 527.112 1055.183 L 527.112 1055.183 L 527.112 1055.183 Q 528.488 1055.183 529.432 1054.575 L 529.432 1054.575 L 529.432 1054.575 Q 530.376 1053.967 530.952 1052.911 L 530.952 1052.911 L 530.952 1052.911 Q 531.528 1051.855 531.768 1050.399 L 531.768 1050.399 L 531.768 1050.399 Q 532.008 1048.943 532.008 1047.247 L 532.008 1047.247 L 532.008 1047.247 Q 532.008 1045.615 531.784 1044.111 L 531.784 1044.111 L 531.784 1044.111 Q 531.56 1042.607 530.968 1041.455 L 530.968 1041.455 L 530.968 1041.455 Q 530.376 1040.303 529.336 1039.615 L 529.336 1039.615 L 529.336 1039.615 Q 528.296 1038.927 526.632 1038.927 L 526.632 1038.927 Z  M 558.528 1049.615 L 554.944 1057.935 L 552.256 1057.935 L 548.64 1049.711 L 548.64 1049.711 Q 548.48 1049.359 548.24 1048.751 L 548.24 1048.751 L 548.24 1048.751 Q 548 1048.143 547.712 1047.407 L 547.712 1047.407 L 547.712 1047.407 Q 547.424 1046.671 547.104 1045.855 L 547.104 1045.855 L 547.104 1045.855 Q 546.784 1045.039 546.496 1044.207 L 546.496 1044.207 L 546.496 1044.207 Q 546.496 1045.039 546.48 1045.855 L 546.48 1045.855 L 546.48 1045.855 Q 546.464 1046.671 546.432 1047.391 L 546.432 1047.391 L 546.432 1047.391 Q 546.4 1048.111 546.384 1048.671 L 546.384 1048.671 L 546.384 1048.671 Q 546.368 1049.231 546.368 1049.551 L 546.368 1049.551 L 546.048 1057.935 L 542.464 1057.935 L 543.744 1036.207 L 546.72 1036.207 L 552.192 1049.775 L 552.192 1049.775 Q 552.48 1050.511 552.848 1051.375 L 552.848 1051.375 L 552.848 1051.375 Q 553.216 1052.239 553.536 1053.071 L 553.536 1053.071 L 553.536 1053.071 Q 553.856 1052.239 554.208 1051.391 L 554.208 1051.391 L 554.208 1051.391 Q 554.56 1050.543 554.88 1049.775 L 554.88 1049.775 L 560.384 1036.207 L 563.296 1036.207 L 564.576 1057.935 L 561.024 1057.935 L 560.672 1049.647 L 560.672 1049.647 Q 560.64 1048.847 560.592 1047.359 L 560.592 1047.359 L 560.592 1047.359 Q 560.544 1045.871 560.512 1044.335 L 560.512 1044.335 L 560.512 1044.335 Q 560.224 1045.135 559.92 1045.935 L 559.92 1045.935 L 559.92 1045.935 Q 559.616 1046.735 559.36 1047.439 L 559.36 1047.439 L 559.36 1047.439 Q 559.104 1048.143 558.88 1048.719 L 558.88 1048.719 L 558.88 1048.719 Q 558.656 1049.295 558.528 1049.615 L 558.528 1049.615 Z  M 571.736 1057.935 L 571.736 1036.271 L 584.6 1036.271 L 584.6 1039.151 L 575.544 1039.151 L 575.544 1045.199 L 583 1045.199 L 582.52 1048.111 L 575.544 1048.111 L 575.544 1055.055 L 585.08 1055.055 L 585.08 1057.935 L 571.736 1057.935 Z " fill="rgb(172,172,30)"/><path d=" M 475.769 1071.569 L 601.945 1071.569 L 601.945 1063.919 L 475.769 1063.919 L 475.769 1071.569 Z " fill="rgb(255,255,255)"/><path d=" M 484.632 1026.703 L 475.769 1026.703 L 489.355 1005.403 L 477.063 986.083 L 485.797 986.083 L 491.943 996.343 L 491.943 996.343 Q 492.461 997.183 493.172 998.473 L 493.172 998.473 L 493.172 998.473 Q 493.884 999.763 494.596 1001.143 L 494.596 1001.143 L 494.596 1001.143 Q 495.307 999.763 496.052 998.503 L 496.052 998.503 L 496.052 998.503 Q 496.796 997.243 497.313 996.403 L 497.313 996.403 L 503.524 986.083 L 512.194 986.083 L 499.836 1005.463 L 513.423 1026.703 L 504.624 1026.703 L 497.378 1014.703 L 497.378 1014.703 Q 496.86 1013.863 496.084 1012.513 L 496.084 1012.513 L 496.084 1012.513 Q 495.307 1011.163 494.596 1009.783 L 494.596 1009.783 L 491.879 1014.703 L 484.632 1026.703 Z " fill="rgb(255,255,255)"/><path d=" M 475.769 1026.681 L 484.632 1026.681 L 484.632 1070.919 L 475.769 1070.919 L 475.769 1026.681 Z " fill="rgb(255,255,255)"/></g></svg>