<?xml version="1.0" encoding="UTF-8" standalone="no"?><!-- Generator: Gravit.io --><svg xmlns="http://www.w3.org/2000/svg" xmlns:xlink="http://www.w3.org/1999/xlink" style="isolation:isolate" viewBox="1383 399.296 138 132.367" width="138pt" height="132.367pt"><defs><clipPath id="_clipPath_c1R1WHxykDAiMNNZAyD4fwng21VSdF1b"><rect x="1383" y="399.296" width="138" height="132.367"/></clipPath></defs><g clip-path="url(#_clipPath_c1R1WHxykDAiMNNZAyD4fwng21VSdF1b)"><path d=" M 1391.864 486.784 L 1383 486.784 L 1396.586 465.484 L 1384.294 446.164 L 1393.028 446.164 L 1399.174 456.424 L 1399.174 456.424 Q 1399.692 457.264 1400.404 458.554 L 1400.404 458.554 L 1400.404 458.554 Q 1401.115 459.844 1401.827 461.224 L 1401.827 461.224 L 1401.827 461.224 Q 1402.539 459.844 1403.283 458.584 L 1403.283 458.584 L 1403.283 458.584 Q 1404.027 457.324 1404.544 456.484 L 1404.544 456.484 L 1410.755 446.164 L 1419.425 446.164 L 1407.068 465.544 L 1420.654 486.784 L 1411.855 486.784 L 1404.609 474.784 L 1404.609 474.784 Q 1404.091 473.944 1403.315 472.594 L 1403.315 472.594 L 1403.315 472.594 Q 1402.539 471.244 1401.827 469.864 L 1401.827 469.864 L 1399.11 474.784 L 1391.864 486.784 Z  M 1425.183 486.784 L 1425.183 446.164 L 1425.183 446.164 Q 1425.636 446.164 1427.253 446.134 L 1427.253 446.134 L 1427.253 446.134 Q 1428.871 446.104 1430.876 446.104 L 1430.876 446.104 L 1430.876 446.104 Q 1432.882 446.104 1434.887 446.074 L 1434.887 446.074 L 1434.887 446.074 Q 1436.893 446.044 1438.187 446.044 L 1438.187 446.044 L 1438.187 446.044 Q 1446.08 446.044 1449.833 449.314 L 1449.833 449.314 L 1449.833 449.314 Q 1453.585 452.584 1453.585 458.284 L 1453.585 458.284 L 1453.585 458.284 Q 1453.585 461.044 1452.55 463.354 L 1452.55 463.354 L 1452.55 463.354 Q 1451.515 465.664 1449.477 467.344 L 1449.477 467.344 L 1449.477 467.344 Q 1447.439 469.024 1444.43 469.954 L 1444.43 469.954 L 1444.43 469.954 Q 1441.422 470.884 1437.411 470.884 L 1437.411 470.884 L 1432.882 470.884 L 1432.882 486.784 L 1425.183 486.784 Z  M 1432.882 451.204 L 1432.882 465.544 L 1437.864 465.544 L 1437.864 465.544 Q 1441.94 465.544 1443.686 463.564 L 1443.686 463.564 L 1443.686 463.564 Q 1445.433 461.584 1445.433 458.524 L 1445.433 458.524 L 1445.433 458.524 Q 1445.433 457.144 1445.045 455.824 L 1445.045 455.824 L 1445.045 455.824 Q 1444.657 454.504 1443.719 453.454 L 1443.719 453.454 L 1443.719 453.454 Q 1442.781 452.404 1441.195 451.774 L 1441.195 451.774 L 1441.195 451.774 Q 1439.61 451.144 1437.217 451.144 L 1437.217 451.144 L 1437.217 451.144 Q 1435.793 451.144 1434.726 451.144 L 1434.726 451.144 L 1434.726 451.144 Q 1433.658 451.144 1432.882 451.204 L 1432.882 451.204 Z  M 1459.796 486.784 L 1459.796 446.164 L 1459.796 446.164 Q 1460.249 446.164 1461.866 446.134 L 1461.866 446.134 L 1461.866 446.134 Q 1463.484 446.104 1465.489 446.104 L 1465.489 446.104 L 1465.489 446.104 Q 1467.495 446.104 1469.501 446.074 L 1469.501 446.074 L 1469.501 446.074 Q 1471.506 446.044 1472.8 446.044 L 1472.8 446.044 L 1472.8 446.044 Q 1480.823 446.044 1484.511 448.954 L 1484.511 448.954 L 1484.511 448.954 Q 1488.198 451.864 1488.198 457.144 L 1488.198 457.144 L 1488.198 457.144 Q 1488.198 460.624 1486.322 463.324 L 1486.322 463.324 L 1486.322 463.324 Q 1484.446 466.024 1480.176 467.224 L 1480.176 467.224 L 1480.176 467.224 Q 1481.987 468.184 1483.411 469.864 L 1483.411 469.864 L 1483.411 469.864 Q 1484.834 471.544 1486.193 473.974 L 1486.193 473.974 L 1486.193 473.974 Q 1487.551 476.404 1488.975 479.614 L 1488.975 479.614 L 1488.975 479.614 Q 1490.398 482.824 1492.274 486.784 L 1492.274 486.784 L 1483.928 486.784 L 1483.928 486.784 Q 1481.729 482.044 1480.079 478.684 L 1480.079 478.684 L 1480.079 478.684 Q 1478.429 475.324 1476.876 473.224 L 1476.876 473.224 L 1476.876 473.224 Q 1475.323 471.124 1473.544 470.164 L 1473.544 470.164 L 1473.544 470.164 Q 1471.765 469.204 1469.371 469.204 L 1469.371 469.204 L 1467.495 469.204 L 1467.495 486.784 L 1459.796 486.784 Z  M 1467.495 451.144 L 1467.495 463.984 L 1472.477 463.984 L 1472.477 463.984 Q 1476.1 463.984 1478.073 462.484 L 1478.073 462.484 L 1478.073 462.484 Q 1480.046 460.984 1480.046 458.044 L 1480.046 458.044 L 1480.046 458.044 Q 1480.046 456.724 1479.658 455.464 L 1479.658 455.464 L 1479.658 455.464 Q 1479.27 454.204 1478.332 453.244 L 1478.332 453.244 L 1478.332 453.244 Q 1477.394 452.284 1475.809 451.714 L 1475.809 451.714 L 1475.809 451.714 Q 1474.224 451.144 1471.83 451.144 L 1471.83 451.144 L 1467.495 451.144 Z  M 1490.463 446.164 L 1521 446.164 L 1520.03 451.564 L 1509.16 451.564 L 1509.16 486.784 L 1501.526 486.784 L 1501.526 451.564 L 1490.463 451.564 L 1490.463 446.164 Z " fill="rgb(0,0,0)"/><path d=" M 1425.183 486.784 L 1425.183 446.164 L 1425.183 446.164 Q 1425.636 446.164 1427.253 446.134 L 1427.253 446.134 L 1427.253 446.134 Q 1428.871 446.104 1430.876 446.104 L 1430.876 446.104 L 1430.876 446.104 Q 1432.882 446.104 1434.887 446.074 L 1434.887 446.074 L 1434.887 446.074 Q 1436.893 446.044 1438.187 446.044 L 1438.187 446.044 L 1438.187 446.044 Q 1446.08 446.044 1449.833 449.314 L 1449.833 449.314 L 1449.833 449.314 Q 1453.585 452.584 1453.585 458.284 L 1453.585 458.284 L 1453.585 458.284 Q 1453.585 461.044 1452.55 463.354 L 1452.55 463.354 L 1452.55 463.354 Q 1451.515 465.664 1449.477 467.344 L 1449.477 467.344 L 1449.477 467.344 Q 1447.439 469.024 1444.43 469.954 L 1444.43 469.954 L 1444.43 469.954 Q 1441.422 470.884 1437.411 470.884 L 1437.411 470.884 L 1432.882 470.884 L 1432.882 486.784 L 1425.183 486.784 Z  M 1432.882 451.204 L 1432.882 465.544 L 1437.864 465.544 L 1437.864 465.544 Q 1441.94 465.544 1443.686 463.564 L 1443.686 463.564 L 1443.686 463.564 Q 1445.433 461.584 1445.433 458.524 L 1445.433 458.524 L 1445.433 458.524 Q 1445.433 457.144 1445.045 455.824 L 1445.045 455.824 L 1445.045 455.824 Q 1444.657 454.504 1443.719 453.454 L 1443.719 453.454 L 1443.719 453.454 Q 1442.781 452.404 1441.195 451.774 L 1441.195 451.774 L 1441.195 451.774 Q 1439.61 451.144 1437.217 451.144 L 1437.217 451.144 L 1437.217 451.144 Q 1435.793 451.144 1434.726 451.144 L 1434.726 451.144 L 1434.726 451.144 Q 1433.658 451.144 1432.882 451.204 L 1432.882 451.204 Z " fill-rule="evenodd" fill="rgb(0,0,0)"/><path d=" M 1459.796 486.784 L 1459.796 446.164 L 1459.796 446.164 Q 1460.249 446.164 1461.866 446.134 L 1461.866 446.134 L 1461.866 446.134 Q 1463.484 446.104 1465.489 446.104 L 1465.489 446.104 L 1465.489 446.104 Q 1467.495 446.104 1469.501 446.074 L 1469.501 446.074 L 1469.501 446.074 Q 1471.506 446.044 1472.8 446.044 L 1472.8 446.044 L 1472.8 446.044 Q 1480.823 446.044 1484.511 448.954 L 1484.511 448.954 L 1484.511 448.954 Q 1488.198 451.864 1488.198 457.144 L 1488.198 457.144 L 1488.198 457.144 Q 1488.198 460.624 1486.322 463.324 L 1486.322 463.324 L 1486.322 463.324 Q 1484.446 466.024 1480.176 467.224 L 1480.176 467.224 L 1480.176 467.224 Q 1481.987 468.184 1483.411 469.864 L 1483.411 469.864 L 1483.411 469.864 Q 1484.834 471.544 1486.193 473.974 L 1486.193 473.974 L 1486.193 473.974 Q 1487.551 476.404 1488.975 479.614 L 1488.975 479.614 L 1488.975 479.614 Q 1490.398 482.824 1492.274 486.784 L 1492.274 486.784 L 1483.928 486.784 L 1483.928 486.784 Q 1481.729 482.044 1480.079 478.684 L 1480.079 478.684 L 1480.079 478.684 Q 1478.429 475.324 1476.876 473.224 L 1476.876 473.224 L 1476.876 473.224 Q 1475.323 471.124 1473.544 470.164 L 1473.544 470.164 L 1473.544 470.164 Q 1471.765 469.204 1469.371 469.204 L 1469.371 469.204 L 1467.495 469.204 L 1467.495 486.784 L 1459.796 486.784 Z  M 1467.495 451.144 L 1467.495 463.984 L 1472.477 463.984 L 1472.477 463.984 Q 1476.1 463.984 1478.073 462.484 L 1478.073 462.484 L 1478.073 462.484 Q 1480.046 460.984 1480.046 458.044 L 1480.046 458.044 L 1480.046 458.044 Q 1480.046 456.724 1479.658 455.464 L 1479.658 455.464 L 1479.658 455.464 Q 1479.27 454.204 1478.332 453.244 L 1478.332 453.244 L 1478.332 453.244 Q 1477.394 452.284 1475.809 451.714 L 1475.809 451.714 L 1475.809 451.714 Q 1474.224 451.144 1471.83 451.144 L 1471.83 451.144 L 1467.495 451.144 Z " fill-rule="evenodd" fill="rgb(0,0,0)"/><path d=" M 1490.463 446.164 L 1521 446.164 L 1520.03 451.564 L 1509.16 451.564 L 1509.16 531.663 L 1501.526 531.663 L 1501.526 451.564 L 1490.463 451.564 L 1490.463 446.164 Z " fill="rgb(0,0,0)"/><path d=" M 1391.094 440.044 L 1384.585 436.34 L 1449.67 399.296 L 1514.755 436.34 L 1508.247 440.044 L 1449.67 406.704 L 1391.094 440.044 Z " fill-rule="evenodd" fill="rgb(0,0,0)"/><path d=" M 1414.351 518.016 L 1414.351 508.16 L 1405.423 508.16 L 1405.423 518.016 L 1401.615 518.016 L 1401.615 496.352 L 1405.423 496.352 L 1405.423 505.376 L 1414.351 505.376 L 1414.351 496.352 L 1418.159 496.352 L 1418.159 518.016 L 1414.351 518.016 L 1414.351 518.016 Z  M 1434.311 496.064 L 1434.311 496.064 Q 1436.711 496.064 1438.407 496.832 L 1438.407 496.832 L 1438.407 496.832 Q 1440.103 497.6 1441.207 499.008 L 1441.207 499.008 L 1441.207 499.008 Q 1442.311 500.416 1442.823 502.448 L 1442.823 502.448 L 1442.823 502.448 Q 1443.335 504.48 1443.335 507.008 L 1443.335 507.008 L 1443.335 507.008 Q 1443.335 509.504 1442.775 511.568 L 1442.775 511.568 L 1442.775 511.568 Q 1442.215 513.632 1441.047 515.104 L 1441.047 515.104 L 1441.047 515.104 Q 1439.879 516.576 1438.103 517.392 L 1438.103 517.392 L 1438.103 517.392 Q 1436.327 518.208 1433.895 518.208 L 1433.895 518.208 L 1433.895 518.208 Q 1431.495 518.208 1429.783 517.488 L 1429.783 517.488 L 1429.783 517.488 Q 1428.071 516.768 1426.967 515.376 L 1426.967 515.376 L 1426.967 515.376 Q 1425.863 513.984 1425.351 512 L 1425.351 512 L 1425.351 512 Q 1424.839 510.016 1424.839 507.456 L 1424.839 507.456 L 1424.839 507.456 Q 1424.839 504.96 1425.399 502.864 L 1425.399 502.864 L 1425.399 502.864 Q 1425.959 500.768 1427.127 499.248 L 1427.127 499.248 L 1427.127 499.248 Q 1428.295 497.728 1430.087 496.896 L 1430.087 496.896 L 1430.087 496.896 Q 1431.879 496.064 1434.311 496.064 L 1434.311 496.064 L 1434.311 496.064 Z  M 1433.863 499.008 L 1433.863 499.008 Q 1432.455 499.008 1431.527 499.632 L 1431.527 499.632 L 1431.527 499.632 Q 1430.599 500.256 1430.023 501.344 L 1430.023 501.344 L 1430.023 501.344 Q 1429.447 502.432 1429.207 503.904 L 1429.207 503.904 L 1429.207 503.904 Q 1428.967 505.376 1428.967 507.104 L 1428.967 507.104 L 1428.967 507.104 Q 1428.967 508.736 1429.191 510.208 L 1429.191 510.208 L 1429.191 510.208 Q 1429.415 511.68 1430.007 512.8 L 1430.007 512.8 L 1430.007 512.8 Q 1430.599 513.92 1431.639 514.592 L 1431.639 514.592 L 1431.639 514.592 Q 1432.679 515.264 1434.343 515.264 L 1434.343 515.264 L 1434.343 515.264 Q 1435.719 515.264 1436.663 514.656 L 1436.663 514.656 L 1436.663 514.656 Q 1437.607 514.048 1438.183 512.992 L 1438.183 512.992 L 1438.183 512.992 Q 1438.759 511.936 1438.999 510.48 L 1438.999 510.48 L 1438.999 510.48 Q 1439.239 509.024 1439.239 507.328 L 1439.239 507.328 L 1439.239 507.328 Q 1439.239 505.696 1439.015 504.192 L 1439.015 504.192 L 1439.015 504.192 Q 1438.791 502.688 1438.199 501.536 L 1438.199 501.536 L 1438.199 501.536 Q 1437.607 500.384 1436.567 499.696 L 1436.567 499.696 L 1436.567 499.696 Q 1435.527 499.008 1433.863 499.008 L 1433.863 499.008 L 1433.863 499.008 Z  M 1465.759 509.696 L 1462.175 518.016 L 1459.487 518.016 L 1455.871 509.792 L 1455.871 509.792 Q 1455.711 509.44 1455.471 508.832 L 1455.471 508.832 L 1455.471 508.832 Q 1455.231 508.224 1454.943 507.488 L 1454.943 507.488 L 1454.943 507.488 Q 1454.655 506.752 1454.335 505.936 L 1454.335 505.936 L 1454.335 505.936 Q 1454.015 505.12 1453.727 504.288 L 1453.727 504.288 L 1453.727 504.288 Q 1453.727 505.12 1453.711 505.936 L 1453.711 505.936 L 1453.711 505.936 Q 1453.695 506.752 1453.663 507.472 L 1453.663 507.472 L 1453.663 507.472 Q 1453.631 508.192 1453.615 508.752 L 1453.615 508.752 L 1453.615 508.752 Q 1453.599 509.312 1453.599 509.632 L 1453.599 509.632 L 1453.279 518.016 L 1449.695 518.016 L 1450.975 496.288 L 1453.951 496.288 L 1459.423 509.856 L 1459.423 509.856 Q 1459.711 510.592 1460.079 511.456 L 1460.079 511.456 L 1460.079 511.456 Q 1460.447 512.32 1460.767 513.152 L 1460.767 513.152 L 1460.767 513.152 Q 1461.087 512.32 1461.439 511.472 L 1461.439 511.472 L 1461.439 511.472 Q 1461.791 510.624 1462.111 509.856 L 1462.111 509.856 L 1467.615 496.288 L 1470.527 496.288 L 1471.807 518.016 L 1468.255 518.016 L 1467.903 509.728 L 1467.903 509.728 Q 1467.871 508.928 1467.823 507.44 L 1467.823 507.44 L 1467.823 507.44 Q 1467.775 505.952 1467.743 504.416 L 1467.743 504.416 L 1467.743 504.416 Q 1467.455 505.216 1467.151 506.016 L 1467.151 506.016 L 1467.151 506.016 Q 1466.847 506.816 1466.591 507.52 L 1466.591 507.52 L 1466.591 507.52 Q 1466.335 508.224 1466.111 508.8 L 1466.111 508.8 L 1466.111 508.8 Q 1465.887 509.376 1465.759 509.696 L 1465.759 509.696 L 1465.759 509.696 Z  M 1478.967 518.016 L 1478.967 496.352 L 1491.831 496.352 L 1491.831 499.232 L 1482.775 499.232 L 1482.775 505.28 L 1490.231 505.28 L 1489.751 508.192 L 1482.775 508.192 L 1482.775 515.136 L 1492.311 515.136 L 1492.311 518.016 L 1478.967 518.016 L 1478.967 518.016 Z " fill="rgb(172,172,30)"/><path d=" M 1383 531.65 L 1509.176 531.65 L 1509.176 524 L 1383 524 L 1383 531.65 Z " fill="rgb(0,0,0)"/><path d=" M 1391.864 486.784 L 1383 486.784 L 1396.586 465.484 L 1384.294 446.164 L 1393.028 446.164 L 1399.174 456.424 L 1399.174 456.424 Q 1399.692 457.264 1400.404 458.554 L 1400.404 458.554 L 1400.404 458.554 Q 1401.115 459.844 1401.827 461.224 L 1401.827 461.224 L 1401.827 461.224 Q 1402.539 459.844 1403.283 458.584 L 1403.283 458.584 L 1403.283 458.584 Q 1404.027 457.324 1404.544 456.484 L 1404.544 456.484 L 1410.755 446.164 L 1419.425 446.164 L 1407.068 465.544 L 1420.654 486.784 L 1411.855 486.784 L 1404.609 474.784 L 1404.609 474.784 Q 1404.091 473.944 1403.315 472.594 L 1403.315 472.594 L 1403.315 472.594 Q 1402.539 471.244 1401.827 469.864 L 1401.827 469.864 L 1399.11 474.784 L 1391.864 486.784 Z " fill="rgb(0,0,0)"/><path d=" M 1383 486.762 L 1391.864 486.762 L 1391.864 531 L 1383 531 L 1383 486.762 Z " fill="rgb(0,0,0)"/></g></svg>