<?xml version="1.0" encoding="UTF-8" standalone="no"?><!-- Generator: Gravit.io --><svg xmlns="http://www.w3.org/2000/svg" xmlns:xlink="http://www.w3.org/1999/xlink" style="isolation:isolate" viewBox="893 -91.56 138 148.583" width="138pt" height="148.583pt"><defs><clipPath id="_clipPath_XDtslu9kntP2aGCIi2nf1xJQbzEvjidf"><rect x="893" y="-91.56" width="138" height="148.583"/></clipPath></defs><g clip-path="url(#_clipPath_XDtslu9kntP2aGCIi2nf1xJQbzEvjidf)"><mask id="_mask_CTpCOuyyznanbDbe7iIAcGtVt9MJh16f"><path d=" M 901.864 1.18 L 893 1.18 L 906.586 -20.12 L 894.294 -39.44 L 903.028 -39.44 L 909.174 -29.18 L 909.174 -29.18 Q 909.692 -28.34 910.404 -27.05 L 910.404 -27.05 L 910.404 -27.05 Q 911.115 -25.76 911.827 -24.38 L 911.827 -24.38 L 911.827 -24.38 Q 912.539 -25.76 913.283 -27.02 L 913.283 -27.02 L 913.283 -27.02 Q 914.027 -28.28 914.544 -29.12 L 914.544 -29.12 L 920.755 -39.44 L 929.425 -39.44 L 917.068 -20.06 L 930.654 1.18 L 921.855 1.18 L 914.609 -10.82 L 914.609 -10.82 Q 914.091 -11.66 913.315 -13.01 L 913.315 -13.01 L 913.315 -13.01 Q 912.539 -14.36 911.827 -15.74 L 911.827 -15.74 L 909.11 -10.82 L 901.864 1.18 Z " fill="white" stroke="none"/></mask><path d=" M 901.864 1.18 L 893 1.18 L 906.586 -20.12 L 894.294 -39.44 L 903.028 -39.44 L 909.174 -29.18 L 909.174 -29.18 Q 909.692 -28.34 910.404 -27.05 L 910.404 -27.05 L 910.404 -27.05 Q 911.115 -25.76 911.827 -24.38 L 911.827 -24.38 L 911.827 -24.38 Q 912.539 -25.76 913.283 -27.02 L 913.283 -27.02 L 913.283 -27.02 Q 914.027 -28.28 914.544 -29.12 L 914.544 -29.12 L 920.755 -39.44 L 929.425 -39.44 L 917.068 -20.06 L 930.654 1.18 L 921.855 1.18 L 914.609 -10.82 L 914.609 -10.82 Q 914.091 -11.66 913.315 -13.01 L 913.315 -13.01 L 913.315 -13.01 Q 912.539 -14.36 911.827 -15.74 L 911.827 -15.74 L 909.11 -10.82 L 901.864 1.18 Z " fill="rgb(172,172,30)"/><path d=" M 901.864 1.18 L 893 1.18 L 906.586 -20.12 L 894.294 -39.44 L 903.028 -39.44 L 909.174 -29.18 L 909.174 -29.18 Q 909.692 -28.34 910.404 -27.05 L 910.404 -27.05 L 910.404 -27.05 Q 911.115 -25.76 911.827 -24.38 L 911.827 -24.38 L 911.827 -24.38 Q 912.539 -25.76 913.283 -27.02 L 913.283 -27.02 L 913.283 -27.02 Q 914.027 -28.28 914.544 -29.12 L 914.544 -29.12 L 920.755 -39.44 L 929.425 -39.44 L 917.068 -20.06 L 930.654 1.18 L 921.855 1.18 L 914.609 -10.82 L 914.609 -10.82 Q 914.091 -11.66 913.315 -13.01 L 913.315 -13.01 L 913.315 -13.01 Q 912.539 -14.36 911.827 -15.74 L 911.827 -15.74 L 909.11 -10.82 L 901.864 1.18 Z " fill="rgb(172,172,30)" mask="url(#_mask_CTpCOuyyznanbDbe7iIAcGtVt9MJh16f)" vector-effect="non-scaling-stroke" stroke-width="2" stroke="rgb(0,0,0)" stroke-linejoin="miter" stroke-linecap="square" stroke-miterlimit="3"/><mask id="_mask_sQAf91S6kCZueH9iAURA9v7R8y0GBTyI"><path d=" M 935.183 1.18 L 935.183 -39.44 L 935.183 -39.44 Q 935.636 -39.44 937.253 -39.47 L 937.253 -39.47 L 937.253 -39.47 Q 938.871 -39.5 940.876 -39.5 L 940.876 -39.5 L 940.876 -39.5 Q 942.882 -39.5 944.887 -39.53 L 944.887 -39.53 L 944.887 -39.53 Q 946.893 -39.56 948.187 -39.56 L 948.187 -39.56 L 948.187 -39.56 Q 956.08 -39.56 959.833 -36.29 L 959.833 -36.29 L 959.833 -36.29 Q 963.585 -33.02 963.585 -27.32 L 963.585 -27.32 L 963.585 -27.32 Q 963.585 -24.56 962.55 -22.25 L 962.55 -22.25 L 962.55 -22.25 Q 961.515 -19.94 959.477 -18.26 L 959.477 -18.26 L 959.477 -18.26 Q 957.439 -16.58 954.43 -15.65 L 954.43 -15.65 L 954.43 -15.65 Q 951.422 -14.72 947.411 -14.72 L 947.411 -14.72 L 942.882 -14.72 L 942.882 1.18 L 935.183 1.18 Z  M 942.882 -34.4 L 942.882 -20.06 L 947.864 -20.06 L 947.864 -20.06 Q 951.94 -20.06 953.686 -22.04 L 953.686 -22.04 L 953.686 -22.04 Q 955.433 -24.02 955.433 -27.08 L 955.433 -27.08 L 955.433 -27.08 Q 955.433 -28.46 955.045 -29.78 L 955.045 -29.78 L 955.045 -29.78 Q 954.657 -31.1 953.719 -32.15 L 953.719 -32.15 L 953.719 -32.15 Q 952.781 -33.2 951.195 -33.83 L 951.195 -33.83 L 951.195 -33.83 Q 949.61 -34.46 947.217 -34.46 L 947.217 -34.46 L 947.217 -34.46 Q 945.793 -34.46 944.726 -34.46 L 944.726 -34.46 L 944.726 -34.46 Q 943.658 -34.46 942.882 -34.4 L 942.882 -34.4 Z " fill-rule="evenodd" fill="white" stroke="none"/></mask><path d=" M 935.183 1.18 L 935.183 -39.44 L 935.183 -39.44 Q 935.636 -39.44 937.253 -39.47 L 937.253 -39.47 L 937.253 -39.47 Q 938.871 -39.5 940.876 -39.5 L 940.876 -39.5 L 940.876 -39.5 Q 942.882 -39.5 944.887 -39.53 L 944.887 -39.53 L 944.887 -39.53 Q 946.893 -39.56 948.187 -39.56 L 948.187 -39.56 L 948.187 -39.56 Q 956.08 -39.56 959.833 -36.29 L 959.833 -36.29 L 959.833 -36.29 Q 963.585 -33.02 963.585 -27.32 L 963.585 -27.32 L 963.585 -27.32 Q 963.585 -24.56 962.55 -22.25 L 962.55 -22.25 L 962.55 -22.25 Q 961.515 -19.94 959.477 -18.26 L 959.477 -18.26 L 959.477 -18.26 Q 957.439 -16.58 954.43 -15.65 L 954.43 -15.65 L 954.43 -15.65 Q 951.422 -14.72 947.411 -14.72 L 947.411 -14.72 L 942.882 -14.72 L 942.882 1.18 L 935.183 1.18 Z  M 942.882 -34.4 L 942.882 -20.06 L 947.864 -20.06 L 947.864 -20.06 Q 951.94 -20.06 953.686 -22.04 L 953.686 -22.04 L 953.686 -22.04 Q 955.433 -24.02 955.433 -27.08 L 955.433 -27.08 L 955.433 -27.08 Q 955.433 -28.46 955.045 -29.78 L 955.045 -29.78 L 955.045 -29.78 Q 954.657 -31.1 953.719 -32.15 L 953.719 -32.15 L 953.719 -32.15 Q 952.781 -33.2 951.195 -33.83 L 951.195 -33.83 L 951.195 -33.83 Q 949.61 -34.46 947.217 -34.46 L 947.217 -34.46 L 947.217 -34.46 Q 945.793 -34.46 944.726 -34.46 L 944.726 -34.46 L 944.726 -34.46 Q 943.658 -34.46 942.882 -34.4 L 942.882 -34.4 Z " fill-rule="evenodd" fill="rgb(172,172,30)"/><path d=" M 935.183 1.18 L 935.183 -39.44 L 935.183 -39.44 Q 935.636 -39.44 937.253 -39.47 L 937.253 -39.47 L 937.253 -39.47 Q 938.871 -39.5 940.876 -39.5 L 940.876 -39.5 L 940.876 -39.5 Q 942.882 -39.5 944.887 -39.53 L 944.887 -39.53 L 944.887 -39.53 Q 946.893 -39.56 948.187 -39.56 L 948.187 -39.56 L 948.187 -39.56 Q 956.08 -39.56 959.833 -36.29 L 959.833 -36.29 L 959.833 -36.29 Q 963.585 -33.02 963.585 -27.32 L 963.585 -27.32 L 963.585 -27.32 Q 963.585 -24.56 962.55 -22.25 L 962.55 -22.25 L 962.55 -22.25 Q 961.515 -19.94 959.477 -18.26 L 959.477 -18.26 L 959.477 -18.26 Q 957.439 -16.58 954.43 -15.65 L 954.43 -15.65 L 954.43 -15.65 Q 951.422 -14.72 947.411 -14.72 L 947.411 -14.72 L 942.882 -14.72 L 942.882 1.18 L 935.183 1.18 Z  M 942.882 -34.4 L 942.882 -20.06 L 947.864 -20.06 L 947.864 -20.06 Q 951.94 -20.06 953.686 -22.04 L 953.686 -22.04 L 953.686 -22.04 Q 955.433 -24.02 955.433 -27.08 L 955.433 -27.08 L 955.433 -27.08 Q 955.433 -28.46 955.045 -29.78 L 955.045 -29.78 L 955.045 -29.78 Q 954.657 -31.1 953.719 -32.15 L 953.719 -32.15 L 953.719 -32.15 Q 952.781 -33.2 951.195 -33.83 L 951.195 -33.83 L 951.195 -33.83 Q 949.61 -34.46 947.217 -34.46 L 947.217 -34.46 L 947.217 -34.46 Q 945.793 -34.46 944.726 -34.46 L 944.726 -34.46 L 944.726 -34.46 Q 943.658 -34.46 942.882 -34.4 L 942.882 -34.4 Z " fill-rule="evenodd" fill="rgb(172,172,30)" mask="url(#_mask_sQAf91S6kCZueH9iAURA9v7R8y0GBTyI)" vector-effect="non-scaling-stroke" stroke-width="2" stroke="rgb(0,0,0)" stroke-linejoin="miter" stroke-linecap="square" stroke-miterlimit="3"/><mask id="_mask_DaZGJdlXVJH4YBA8Uzadkf9VN0BGRF8Z"><path d=" M 969.796 1.18 L 969.796 -39.44 L 969.796 -39.44 Q 970.249 -39.44 971.866 -39.47 L 971.866 -39.47 L 971.866 -39.47 Q 973.484 -39.5 975.489 -39.5 L 975.489 -39.5 L 975.489 -39.5 Q 977.495 -39.5 979.501 -39.53 L 979.501 -39.53 L 979.501 -39.53 Q 981.506 -39.56 982.8 -39.56 L 982.8 -39.56 L 982.8 -39.56 Q 990.823 -39.56 994.511 -36.65 L 994.511 -36.65 L 994.511 -36.65 Q 998.198 -33.74 998.198 -28.46 L 998.198 -28.46 L 998.198 -28.46 Q 998.198 -24.98 996.322 -22.28 L 996.322 -22.28 L 996.322 -22.28 Q 994.446 -19.58 990.176 -18.38 L 990.176 -18.38 L 990.176 -18.38 Q 991.987 -17.42 993.411 -15.74 L 993.411 -15.74 L 993.411 -15.74 Q 994.834 -14.06 996.193 -11.63 L 996.193 -11.63 L 996.193 -11.63 Q 997.551 -9.2 998.975 -5.99 L 998.975 -5.99 L 998.975 -5.99 Q 1000.398 -2.78 1002.274 1.18 L 1002.274 1.18 L 993.928 1.18 L 993.928 1.18 Q 991.729 -3.56 990.079 -6.92 L 990.079 -6.92 L 990.079 -6.92 Q 988.429 -10.28 986.876 -12.38 L 986.876 -12.38 L 986.876 -12.38 Q 985.324 -14.48 983.544 -15.44 L 983.544 -15.44 L 983.544 -15.44 Q 981.765 -16.4 979.371 -16.4 L 979.371 -16.4 L 977.495 -16.4 L 977.495 1.18 L 969.796 1.18 Z  M 977.495 -34.46 L 977.495 -21.62 L 982.477 -21.62 L 982.477 -21.62 Q 986.1 -21.62 988.073 -23.12 L 988.073 -23.12 L 988.073 -23.12 Q 990.046 -24.62 990.046 -27.56 L 990.046 -27.56 L 990.046 -27.56 Q 990.046 -28.88 989.658 -30.14 L 989.658 -30.14 L 989.658 -30.14 Q 989.27 -31.4 988.332 -32.36 L 988.332 -32.36 L 988.332 -32.36 Q 987.394 -33.32 985.809 -33.89 L 985.809 -33.89 L 985.809 -33.89 Q 984.224 -34.46 981.83 -34.46 L 981.83 -34.46 L 977.495 -34.46 Z " fill-rule="evenodd" fill="white" stroke="none"/></mask><path d=" M 969.796 1.18 L 969.796 -39.44 L 969.796 -39.44 Q 970.249 -39.44 971.866 -39.47 L 971.866 -39.47 L 971.866 -39.47 Q 973.484 -39.5 975.489 -39.5 L 975.489 -39.5 L 975.489 -39.5 Q 977.495 -39.5 979.501 -39.53 L 979.501 -39.53 L 979.501 -39.53 Q 981.506 -39.56 982.8 -39.56 L 982.8 -39.56 L 982.8 -39.56 Q 990.823 -39.56 994.511 -36.65 L 994.511 -36.65 L 994.511 -36.65 Q 998.198 -33.74 998.198 -28.46 L 998.198 -28.46 L 998.198 -28.46 Q 998.198 -24.98 996.322 -22.28 L 996.322 -22.28 L 996.322 -22.28 Q 994.446 -19.58 990.176 -18.38 L 990.176 -18.38 L 990.176 -18.38 Q 991.987 -17.42 993.411 -15.74 L 993.411 -15.74 L 993.411 -15.74 Q 994.834 -14.06 996.193 -11.63 L 996.193 -11.63 L 996.193 -11.63 Q 997.551 -9.2 998.975 -5.99 L 998.975 -5.99 L 998.975 -5.99 Q 1000.398 -2.78 1002.274 1.18 L 1002.274 1.18 L 993.928 1.18 L 993.928 1.18 Q 991.729 -3.56 990.079 -6.92 L 990.079 -6.92 L 990.079 -6.92 Q 988.429 -10.28 986.876 -12.38 L 986.876 -12.38 L 986.876 -12.38 Q 985.324 -14.48 983.544 -15.44 L 983.544 -15.44 L 983.544 -15.44 Q 981.765 -16.4 979.371 -16.4 L 979.371 -16.4 L 977.495 -16.4 L 977.495 1.18 L 969.796 1.18 Z  M 977.495 -34.46 L 977.495 -21.62 L 982.477 -21.62 L 982.477 -21.62 Q 986.1 -21.62 988.073 -23.12 L 988.073 -23.12 L 988.073 -23.12 Q 990.046 -24.62 990.046 -27.56 L 990.046 -27.56 L 990.046 -27.56 Q 990.046 -28.88 989.658 -30.14 L 989.658 -30.14 L 989.658 -30.14 Q 989.27 -31.4 988.332 -32.36 L 988.332 -32.36 L 988.332 -32.36 Q 987.394 -33.32 985.809 -33.89 L 985.809 -33.89 L 985.809 -33.89 Q 984.224 -34.46 981.83 -34.46 L 981.83 -34.46 L 977.495 -34.46 Z " fill-rule="evenodd" fill="rgb(172,172,30)"/><path d=" M 969.796 1.18 L 969.796 -39.44 L 969.796 -39.44 Q 970.249 -39.44 971.866 -39.47 L 971.866 -39.47 L 971.866 -39.47 Q 973.484 -39.5 975.489 -39.5 L 975.489 -39.5 L 975.489 -39.5 Q 977.495 -39.5 979.501 -39.53 L 979.501 -39.53 L 979.501 -39.53 Q 981.506 -39.56 982.8 -39.56 L 982.8 -39.56 L 982.8 -39.56 Q 990.823 -39.56 994.511 -36.65 L 994.511 -36.65 L 994.511 -36.65 Q 998.198 -33.74 998.198 -28.46 L 998.198 -28.46 L 998.198 -28.46 Q 998.198 -24.98 996.322 -22.28 L 996.322 -22.28 L 996.322 -22.28 Q 994.446 -19.58 990.176 -18.38 L 990.176 -18.38 L 990.176 -18.38 Q 991.987 -17.42 993.411 -15.74 L 993.411 -15.74 L 993.411 -15.74 Q 994.834 -14.06 996.193 -11.63 L 996.193 -11.63 L 996.193 -11.63 Q 997.551 -9.2 998.975 -5.99 L 998.975 -5.99 L 998.975 -5.99 Q 1000.398 -2.78 1002.274 1.18 L 1002.274 1.18 L 993.928 1.18 L 993.928 1.18 Q 991.729 -3.56 990.079 -6.92 L 990.079 -6.92 L 990.079 -6.92 Q 988.429 -10.28 986.876 -12.38 L 986.876 -12.38 L 986.876 -12.38 Q 985.324 -14.48 983.544 -15.44 L 983.544 -15.44 L 983.544 -15.44 Q 981.765 -16.4 979.371 -16.4 L 979.371 -16.4 L 977.495 -16.4 L 977.495 1.18 L 969.796 1.18 Z  M 977.495 -34.46 L 977.495 -21.62 L 982.477 -21.62 L 982.477 -21.62 Q 986.1 -21.62 988.073 -23.12 L 988.073 -23.12 L 988.073 -23.12 Q 990.046 -24.62 990.046 -27.56 L 990.046 -27.56 L 990.046 -27.56 Q 990.046 -28.88 989.658 -30.14 L 989.658 -30.14 L 989.658 -30.14 Q 989.27 -31.4 988.332 -32.36 L 988.332 -32.36 L 988.332 -32.36 Q 987.394 -33.32 985.809 -33.89 L 985.809 -33.89 L 985.809 -33.89 Q 984.224 -34.46 981.83 -34.46 L 981.83 -34.46 L 977.495 -34.46 Z " fill-rule="evenodd" fill="rgb(172,172,30)" mask="url(#_mask_DaZGJdlXVJH4YBA8Uzadkf9VN0BGRF8Z)" vector-effect="non-scaling-stroke" stroke-width="2" stroke="rgb(0,0,0)" stroke-linejoin="miter" stroke-linecap="square" stroke-miterlimit="3"/><mask id="_mask_HCqq6Ky8nOqN1kH1eu7BzJoLNN7ebVLb"><path d=" M 1000.463 -39.44 L 1031 -39.44 L 1030.03 -34.04 L 1019.16 -34.04 L 1019.16 1.18 L 1011.526 1.18 L 1011.526 -34.04 L 1000.463 -34.04 L 1000.463 -39.44 Z " fill="white" stroke="none"/></mask><path d=" M 1000.463 -39.44 L 1031 -39.44 L 1030.03 -34.04 L 1019.16 -34.04 L 1019.16 1.18 L 1011.526 1.18 L 1011.526 -34.04 L 1000.463 -34.04 L 1000.463 -39.44 Z " fill="rgb(172,172,30)"/><path d=" M 1000.463 -39.44 L 1031 -39.44 L 1030.03 -34.04 L 1019.16 -34.04 L 1019.16 1.18 L 1011.526 1.18 L 1011.526 -34.04 L 1000.463 -34.04 L 1000.463 -39.44 Z " fill="rgb(172,172,30)" mask="url(#_mask_HCqq6Ky8nOqN1kH1eu7BzJoLNN7ebVLb)" vector-effect="non-scaling-stroke" stroke-width="2" stroke="rgb(0,0,0)" stroke-linejoin="miter" stroke-linecap="square" stroke-miterlimit="3"/><path d=" M 1018 8.62 C 1010.828 36.442 985.549 57.022 955.5 57.022 C 925.452 57.022 900.172 36.442 893 8.62 L 899.691 8.62 L 899.691 8.62 C 906.69 32.838 929.041 50.569 955.5 50.569 C 981.96 50.569 1004.31 32.838 1011.309 8.62 L 1018 8.62 Z " fill-rule="evenodd" fill="rgb(0,0,0)"/><path d=" M 910.5 -50.811 L 905.5 -54.516 L 955.5 -91.56 L 1005.5 -54.516 L 1000.5 -50.811 L 955.5 -84.151 L 910.5 -50.811 Z " fill-rule="evenodd" fill="rgb(0,0,0)"/></g></svg>